<svg width="22" height="22" viewBox="0 0 22 22" fill="none" xmlns="http://www.w3.org/2000/svg">
<path d="M5.5 8.25016V1.8335H16.5V8.25016" stroke="#989898" stroke-width="2" stroke-linecap="round" stroke-linejoin="round"/>
<path d="M5.50001 16.5H3.66668C3.18045 16.5 2.71413 16.3068 2.37031 15.963C2.0265 15.6192 1.83334 15.1529 1.83334 14.6667V10.0833C1.83334 9.5971 2.0265 9.13079 2.37031 8.78697C2.71413 8.44315 3.18045 8.25 3.66668 8.25H18.3333C18.8196 8.25 19.2859 8.44315 19.6297 8.78697C19.9735 9.13079 20.1667 9.5971 20.1667 10.0833V14.6667C20.1667 15.1529 19.9735 15.6192 19.6297 15.963C19.2859 16.3068 18.8196 16.5 18.3333 16.5H16.5" stroke="#989898" stroke-width="2" stroke-linecap="round" stroke-linejoin="round"/>
<path d="M16.5 12.8335H5.5V20.1668H16.5V12.8335Z" stroke="#989898" stroke-width="2" stroke-linecap="round" stroke-linejoin="round"/>
</svg>
