<svg width="16" height="22" viewBox="0 0 16 22" fill="none" xmlns="http://www.w3.org/2000/svg">
<path d="M7.99996 5.5V8.25L11.6666 4.58333L7.99996 0.916664V3.66666C3.94829 3.66666 0.666626 6.94833 0.666626 11C0.666626 12.4392 1.08829 13.7775 1.80329 14.905L3.14163 13.5667C2.72913 12.8058 2.49996 11.9258 2.49996 11C2.49996 7.96583 4.96579 5.5 7.99996 5.5ZM14.1966 7.095L12.8583 8.43333C13.2616 9.20333 13.5 10.0742 13.5 11C13.5 14.0342 11.0341 16.5 7.99996 16.5V13.75L4.33329 17.4167L7.99996 21.0833V18.3333C12.0516 18.3333 15.3333 15.0517 15.3333 11C15.3333 9.56083 14.9116 8.2225 14.1966 7.095Z" fill="#989898"/>
</svg>
