<svg width="20" height="18" viewBox="0 0 20 18" fill="none" xmlns="http://www.w3.org/2000/svg">
<path d="M3.61511 0.75H17.3651C17.8513 0.75 18.3177 0.943154 18.6615 1.28697C19.0053 1.63079 19.1984 2.0971 19.1984 2.58333V5.33333C19.1984 5.81956 19.0053 6.28588 18.6615 6.6297C18.3177 6.97351 17.8513 7.16667 17.3651 7.16667H15.5318V9.91667C15.5318 10.8891 15.1455 11.8218 14.4578 12.5094C13.7702 13.197 12.8376 13.5833 11.8651 13.5833H6.36511C5.39265 13.5833 4.46002 13.197 3.77239 12.5094C3.08475 11.8218 2.69845 10.8891 2.69845 9.91667V1.66667C2.69845 1.42355 2.79502 1.19039 2.96693 1.01849C3.13884 0.846577 3.372 0.75 3.61511 0.75ZM15.5318 2.58333V5.33333H17.3651V2.58333H15.5318ZM0.865112 15.4167H17.3651V17.25H0.865112V15.4167Z" fill="#32324D"/>
</svg>
