<svg width="11" height="7" viewBox="0 0 11 7" fill="none" xmlns="http://www.w3.org/2000/svg">
<path fill-rule="evenodd" clip-rule="evenodd" d="M2.38419e-07 6.22222C2.38419e-07 6.01157 0.0680341 5.82928 0.204102 5.67535L5.0166 0.230902C5.15267 0.0769671 5.3138 0 5.5 0C5.6862 0 5.84733 0.0769671 5.9834 0.230902L10.7959 5.67535C10.932 5.82928 11 6.01157 11 6.22222C11 6.43287 10.932 6.61516 10.7959 6.7691C10.6598 6.92303 10.4987 7 10.3125 7L0.6875 7C0.501302 7 0.340169 6.92303 0.204102 6.7691C0.0680341 6.61516 2.38419e-07 6.43287 2.38419e-07 6.22222Z" fill="#DCDCE4"/>
</svg>
