<svg width="18" height="19" viewBox="0 0 18 19" fill="none" xmlns="http://www.w3.org/2000/svg">
<g clip-path="url(#clip0_1738_5015)">
<path d="M9 1.75C8.40326 1.75 7.83097 1.98705 7.40901 2.40901C6.98705 2.83097 6.75 3.40326 6.75 4V10C6.75 10.5967 6.98705 11.169 7.40901 11.591C7.83097 12.0129 8.40326 12.25 9 12.25C9.59674 12.25 10.169 12.0129 10.591 11.591C11.0129 11.169 11.25 10.5967 11.25 10V4C11.25 3.40326 11.0129 2.83097 10.591 2.40901C10.169 1.98705 9.59674 1.75 9 1.75Z" stroke="#C0452C" stroke-width="2" stroke-linecap="round" stroke-linejoin="round"/>
<path d="M14.25 8.5V10C14.25 11.3924 13.6969 12.7277 12.7123 13.7123C11.7277 14.6969 10.3924 15.25 9 15.25C7.60761 15.25 6.27226 14.6969 5.28769 13.7123C4.30312 12.7277 3.75 11.3924 3.75 10V8.5" stroke="#C0452C" stroke-width="2" stroke-linecap="round" stroke-linejoin="round"/>
<path d="M9 15.25V18.25" stroke="#C0452C" stroke-width="2" stroke-linecap="round" stroke-linejoin="round"/>
<path d="M6 18.25H12" stroke="#C0452C" stroke-width="2" stroke-linecap="round" stroke-linejoin="round"/>
</g>
<defs>
<clipPath id="clip0_1738_5015">
<rect width="18" height="19" fill="white"/>
</clipPath>
</defs>
</svg>
