<svg width="25" height="24" viewBox="0 0 25 24" fill="none" xmlns="http://www.w3.org/2000/svg">
<g clip-path="url(#clip0_2702_4706)">
<path d="M23.11 16.95C23.4322 16.1893 23.5609 15.3606 23.4845 14.5381C23.4082 13.7155 23.1293 12.9246 22.6726 12.2362C22.216 11.5478 21.5959 10.9832 20.8677 10.593C20.1396 10.2027 19.3261 9.99902 18.5 10H17.24C16.8318 8.39249 15.9341 6.95158 14.671 5.87666C13.408 4.80173 11.8421 4.14593 10.19 4M5.49999 5C3.93807 5.86364 2.7098 7.22478 2.01058 8.86691C1.31136 10.509 1.18134 12.3378 1.64122 14.0623C2.10109 15.7869 3.12444 17.3081 4.54847 18.384C5.97251 19.4599 7.71543 20.0288 9.49999 20H18.5C19.0798 19.9993 19.655 19.8978 20.2 19.7" stroke="#989898" stroke-width="2" stroke-linecap="round" stroke-linejoin="round"/>
<path d="M1.5 1L23.5 23" stroke="#989898" stroke-width="2" stroke-linecap="round" stroke-linejoin="round"/>
</g>
<defs>
<clipPath id="clip0_2702_4706">
<rect width="24" height="24" fill="white" transform="translate(0.5)"/>
</clipPath>
</defs>
</svg>
