<svg width="12" height="12" viewBox="0 0 12 12" fill="none" xmlns="http://www.w3.org/2000/svg">
<path fill-rule="evenodd" clip-rule="evenodd" d="M0 2C0 1.44772 0.447715 1 1 1H11C11.5523 1 12 1.44772 12 2C12 2.55228 11.5523 3 11 3H1C0.447715 3 0 2.55228 0 2ZM2 6C2 5.44772 2.44772 5 3 5H9C9.55229 5 10 5.44772 10 6C10 6.55228 9.55229 7 9 7H3C2.44772 7 2 6.55228 2 6ZM5 9C4.44772 9 4 9.44771 4 10C4 10.5523 4.44772 11 5 11H7C7.55228 11 8 10.5523 8 10C8 9.44771 7.55228 9 7 9H5Z" fill="#989898"/>
</svg>
