<svg width="15" height="16" viewBox="0 0 15 16" fill="none" xmlns="http://www.w3.org/2000/svg">
<path fill-rule="evenodd" clip-rule="evenodd" d="M14.7255 12.8981L11.5455 9.67774C12.063 8.77422 12.333 7.76948 12.333 6.75725C12.333 3.4731 9.66299 0.800049 6.38549 0.800049C3.10799 0.800049 0.437988 3.4731 0.437988 6.75725C0.437988 10.0414 3.10799 12.7144 6.38549 12.7144C7.43174 12.7144 8.46674 12.4258 9.38924 11.8747L12.5542 15.0838C12.6255 15.1551 12.7267 15.2 12.828 15.2C12.9292 15.2 13.0305 15.1588 13.1017 15.0838L14.7255 13.4418C14.8755 13.288 14.8755 13.0481 14.7255 12.8981V12.8981ZM6.38447 3.12036C8.38696 3.12036 10.0145 4.75119 10.0145 6.75691C10.0145 8.76264 8.38696 10.3935 6.38447 10.3935C4.38197 10.3935 2.75447 8.76264 2.75447 6.75691C2.75447 4.75119 4.38197 3.12036 6.38447 3.12036V3.12036Z" fill="#989898"/>
</svg>
