<svg width="17" height="18" viewBox="0 0 17 18" fill="none" xmlns="http://www.w3.org/2000/svg">
<path d="M1.71484 4.37915H3.21484H15.2148" stroke="#989898" stroke-width="2" stroke-linecap="round" stroke-linejoin="round"/>
<path d="M13.7148 4.37915V14.8792C13.7148 15.277 13.5568 15.6585 13.2755 15.9398C12.9942 16.2211 12.6127 16.3792 12.2148 16.3792H4.71484C4.31702 16.3792 3.93549 16.2211 3.65418 15.9398C3.37288 15.6585 3.21484 15.277 3.21484 14.8792V4.37915M5.46484 4.37915V2.87915C5.46484 2.48133 5.62288 2.09979 5.90418 1.81849C6.18549 1.53719 6.56702 1.37915 6.96484 1.37915H9.96484C10.3627 1.37915 10.7442 1.53719 11.0255 1.81849C11.3068 2.09979 11.4648 2.48133 11.4648 2.87915V4.37915" stroke="#989898" stroke-width="2" stroke-linecap="round" stroke-linejoin="round"/>
<path d="M6.96484 8.12915V12.6292" stroke="#989898" stroke-width="2" stroke-linecap="round" stroke-linejoin="round"/>
<path d="M9.96484 8.12915V12.6292" stroke="#989898" stroke-width="2" stroke-linecap="round" stroke-linejoin="round"/>
</svg>
