<?xml version="1.0" encoding="iso-8859-1"?>
<!-- Generator: Adobe Illustrator 19.0.0, SVG Export Plug-In . SVG Version: 6.00 Build 0)  -->
<svg version="1.1" id="Layer_1" xmlns="http://www.w3.org/2000/svg" xmlns:xlink="http://www.w3.org/1999/xlink" width="32px" height="32px" x="0px" y="0px"
	 viewBox="0 0 512 512" style="enable-background:new 0 0 512 512;" xml:space="preserve">
<g>
	<g>
		<path fill="#8E8EA9" d="M294.957,0c-9.217,0-16.696,7.473-16.696,16.696v200.348c0,9.223,7.479,16.696,16.696,16.696h200.348
			c9.217,0,16.696-7.473,16.696-16.696C512,97.365,414.631,0,294.957,0z"/>
	</g>
</g>
<g>
	<g>
		<path fill="#8E8EA9" d="M417.391,278.261H233.739V94.609c0-9.223-7.479-16.696-16.696-16.696C97.369,77.913,0,175.278,0,294.957
			S97.369,512,217.043,512s217.044-97.365,217.044-217.043C434.087,285.734,426.608,278.261,417.391,278.261z"/>
	</g>
</g>
<g>
</g>
<g>
</g>
<g>
</g>
<g>
</g>
<g>
</g>
<g>
</g>
<g>
</g>
<g>
</g>
<g>
</g>
<g>
</g>
<g>
</g>
<g>
</g>
<g>
</g>
<g>
</g>
<g>
</g>
</svg>
