<svg width="30" height="30" viewBox="0 0 30 30" fill="none" xmlns="http://www.w3.org/2000/svg">
<path fill-rule="evenodd" clip-rule="evenodd" d="M16.0587 0.43934L20.0614 4.44202L22.3258 2.17767C23.8431 0.66045 26.3029 0.66045 27.8201 2.17767C29.3373 3.69488 29.3373 6.15479 27.8201 7.67201L25.5558 9.93639L29.5569 13.9375C30.1427 14.5233 30.1427 15.473 29.5569 16.0588L25.5561 20.0596L24.1571 18.6606C22.6399 17.1434 20.18 17.1434 18.6628 18.6606C17.1456 20.1778 17.1456 22.6378 18.6628 24.155L20.0618 25.554L16.0589 29.557C15.4731 30.1428 14.5234 30.1428 13.9376 29.557L9.93634 25.5557L7.67373 27.8184C6.15652 29.3356 3.69662 29.3356 2.1794 27.8184C0.662187 26.3011 0.662187 23.8412 2.1794 22.3241L4.44202 20.0614L0.439339 16.0587C-0.146446 15.473 -0.146446 14.5232 0.439339 13.9374L4.44244 9.93432L5.84334 11.3352C7.36056 12.8524 9.82045 12.8524 11.3377 11.3352C12.8549 9.818 12.8549 7.3581 11.3377 5.84089L9.93678 4.43999L13.9374 0.439339C14.5232 -0.146448 15.473 -0.146446 16.0587 0.43934Z" fill="#8E8EA9"/>
</svg>
