<svg width="39" height="33" viewBox="0 0 39 33" fill="none" xmlns="http://www.w3.org/2000/svg">
<path d="M35.0494 3.92969H12.7231C12.7231 3.92969 12.7231 6.18259 12.7231 6.52702H35.0494C35.8143 6.52702 36.3913 7.34518 36.3913 8.31918V24.4616L31.8558 19.2669C31.5292 18.8845 31.1192 18.5767 30.6552 18.3656C30.1912 18.1546 29.6847 18.0455 29.1721 18.0462C28.6605 18.0439 28.1546 18.151 27.6907 18.3598C27.2268 18.5685 26.8163 18.8739 26.4884 19.2539L21.7248 24.7992L16.8941 19.2929C16.565 18.9142 16.1542 18.6098 15.6905 18.4012C15.2269 18.1925 14.7217 18.0847 14.2104 18.0851C13.6969 18.0878 13.1904 18.1997 12.7266 18.4129C12.2629 18.6261 11.8532 18.9354 11.5266 19.3189L6.76306 24.9421V12.5377H4.07937L4.07935 28.1758C4.07935 28.3576 4.07935 28.5394 4.07935 28.7472C4.11654 28.9981 4.17488 29.2457 4.25379 29.4874C4.25379 29.5524 4.25379 29.6303 4.25379 29.6952L4.32088 29.8511C4.41319 30.0848 4.5254 30.3106 4.65634 30.5264L4.81737 30.7731C4.93853 30.9472 5.07309 31.1122 5.21992 31.2666L5.4212 31.4614C5.63315 31.6553 5.86725 31.8253 6.11897 31.9679H6.15922C6.74303 32.3192 7.41748 32.5037 8.10491 32.5003H34.942C35.5281 32.4946 36.1052 32.3607 36.6303 32.1089C37.1554 31.857 37.6149 31.4936 37.9746 31.0458C38.336 30.6128 38.6133 30.12 38.7932 29.5913C38.9012 29.2359 38.9687 28.8701 38.9945 28.5004C38.9945 28.3706 38.9945 28.2407 38.9945 28.0979V8.31918C39.0509 7.23582 38.6715 6.17342 37.9359 5.35498C37.2004 4.53654 36.1658 4.0257 35.0494 3.92969Z" fill="#8E8EA9"/>
<path d="M20.3964 15.0702C21.8785 15.0702 23.0801 13.9073 23.0801 12.4728C23.0801 11.0384 21.8785 9.87549 20.3964 9.87549C18.9142 9.87549 17.7126 11.0384 17.7126 12.4728C17.7126 13.9073 18.9142 15.0702 20.3964 15.0702Z" fill="#8E8EA9"/>
<path d="M5.36791 10.4976H6.70928V6.54744H10.7348C10.7348 6.54744 10.7349 5.5932 10.7349 5.24878C10.7349 4.90435 10.7348 3.95011 10.7348 3.95011H6.70928V0C6.70928 0 5.72379 0 5.36791 0C5.01203 0 3.98617 0.00390634 4.02557 0V3.95011H4.22286e-05C4.22286e-05 3.95011 0 4.90435 0 5.24878C0 5.5932 0.00011048 6.54744 0.00011048 6.54744H4.02557V10.4976C4.02557 10.4976 5.01203 10.4976 5.36791 10.4976Z" fill="#8E8EA9"/>
</svg>
