<svg width="16" height="16" viewBox="0 0 16 16" fill="none" xmlns="http://www.w3.org/2000/svg">
<path d="M15.5 8.89029C15.5 9.05597 15.3657 9.19029 15.2 9.19029H9.19029V15.2C9.19029 15.3657 9.05597 15.5 8.89029 15.5H7.10971C6.94403 15.5 6.80971 15.3657 6.80971 15.2V9.19029H0.8C0.634315 9.19029 0.5 9.05597 0.5 8.89029V7.10971C0.5 6.94403 0.634315 6.80971 0.8 6.80971H6.80971V0.8C6.80971 0.634315 6.94403 0.5 7.10971 0.5H8.89029C9.05597 0.5 9.19029 0.634315 9.19029 0.8V6.80971H15.2C15.3657 6.80971 15.5 6.94403 15.5 7.10971V8.89029Z" fill="#9C9C9C"/>
</svg>
