<svg width="13" height="17" viewBox="0 0 13 17" fill="none" xmlns="http://www.w3.org/2000/svg">
<path d="M12.8965 16.5H0.896484V15C0.896484 14.0054 1.29157 13.0516 1.99483 12.3483C2.6981 11.6451 3.65192 11.25 4.64648 11.25H9.14648C10.141 11.25 11.0949 11.6451 11.7981 12.3483C12.5014 13.0516 12.8965 14.0054 12.8965 15V16.5ZM6.89648 9.75C6.30554 9.75 5.72037 9.6336 5.17441 9.40746C4.62844 9.18131 4.13237 8.84984 3.7145 8.43198C3.29664 8.01412 2.96517 7.51804 2.73903 6.97208C2.51288 6.42611 2.39648 5.84095 2.39648 5.25C2.39648 4.65905 2.51288 4.07389 2.73903 3.52792C2.96517 2.98196 3.29664 2.48588 3.7145 2.06802C4.13237 1.65016 4.62844 1.31869 5.17441 1.09254C5.72037 0.866396 6.30554 0.75 6.89648 0.75C8.08996 0.75 9.23455 1.22411 10.0785 2.06802C10.9224 2.91193 11.3965 4.05653 11.3965 5.25C11.3965 6.44347 10.9224 7.58807 10.0785 8.43198C9.23455 9.27589 8.08996 9.75 6.89648 9.75V9.75Z" fill="#8E8EA9"/>
</svg>
