<svg width="18" height="14" viewBox="0 0 18 14" fill="none" xmlns="http://www.w3.org/2000/svg">
<path d="M6.9975 6.62491H8.625C9.52011 6.62491 10.3785 6.98049 11.0115 7.61342C11.6444 8.24636 12 9.1048 12 9.99991H6.74925L6.75 10.7499H12.75V9.99991C12.7476 9.20188 12.5171 8.42118 12.0855 7.74991H14.25C14.9589 7.74971 15.6534 7.95048 16.2529 8.32894C16.8524 8.7074 17.3323 9.24803 17.637 9.88816C15.8633 12.2289 12.9915 13.7499 9.75 13.7499C7.67925 13.7499 5.925 13.3074 4.5 12.5312V5.55316C5.41246 5.68386 6.27411 6.05362 6.9975 6.62491V6.62491ZM3 4.74991C3.1837 4.74993 3.361 4.81737 3.49828 4.93944C3.63556 5.06151 3.72326 5.22972 3.74475 5.41216L3.75 5.49991V12.2499C3.75 12.4488 3.67098 12.6396 3.53033 12.7802C3.38968 12.9209 3.19891 12.9999 3 12.9999H1.5C1.30109 12.9999 1.11032 12.9209 0.96967 12.7802C0.829018 12.6396 0.75 12.4488 0.75 12.2499V5.49991C0.75 5.30099 0.829018 5.11023 0.96967 4.96958C1.11032 4.82892 1.30109 4.74991 1.5 4.74991H3ZM10.2345 0.681156L10.5 0.947406L10.7655 0.681906C10.9394 0.50657 11.1461 0.3673 11.374 0.272092C11.6018 0.176884 11.8462 0.127613 12.0931 0.127107C12.34 0.126602 12.5846 0.174872 12.8128 0.269146C13.041 0.363421 13.2484 0.501843 13.4229 0.676466C13.5975 0.851088 13.7359 1.05847 13.8301 1.28671C13.9243 1.51495 13.9725 1.75955 13.9719 2.00647C13.9713 2.25339 13.922 2.49776 13.8267 2.72556C13.7315 2.95336 13.5921 3.1601 13.4167 3.33391L10.5 6.24991L7.5825 3.33241C7.40716 3.15855 7.26789 2.95177 7.17269 2.72395C7.07748 2.49612 7.02821 2.25173 7.0277 2.00481C7.0272 1.7579 7.07547 1.51331 7.16974 1.2851C7.26402 1.05688 7.40244 0.849537 7.57706 0.674964C7.75168 0.50039 7.95907 0.362027 8.18731 0.267817C8.41555 0.173607 8.66015 0.125406 8.90707 0.125982C9.15398 0.126557 9.39836 0.175897 9.62616 0.27117C9.85395 0.366442 10.0607 0.50577 10.2345 0.681156V0.681156Z" fill="#8E8EA9"/>
</svg>
