<svg width="16" height="18" viewBox="0 0 16 18" fill="none" xmlns="http://www.w3.org/2000/svg">
<path d="M12.7117 0.416992L10.3934 2.52783C11.4726 2.85382 12.466 3.41539 13.3017 4.17199C16.2284 6.83866 16.2284 11.162 13.3017 13.8287C11.1417 15.7953 7.80339 17.047 3.28839 17.5837L5.60673 15.4728C4.52752 15.1468 3.53416 14.5853 2.69839 13.8287C-0.228273 11.162 -0.245773 6.85449 2.69839 4.17199C4.85839 2.20533 8.19756 0.953659 12.7126 0.416992H12.7117ZM8.00006 5.66699C5.92923 5.66699 4.25006 7.15866 4.25006 9.00033C4.25006 10.842 5.92923 12.3337 8.00006 12.3337C10.0709 12.3337 11.7501 10.842 11.7501 9.00033C11.7501 7.15866 10.0709 5.66699 8.00006 5.66699Z" fill="#946BDE"/>
</svg>
