<svg width="17" height="15" viewBox="0 0 17 15" fill="none" xmlns="http://www.w3.org/2000/svg">
<path d="M14.0477 2.57724C13.7072 2.23657 13.3029 1.96633 12.8579 1.78196C12.4129 1.59758 11.936 1.50269 11.4543 1.50269C10.9727 1.50269 10.4957 1.59758 10.0508 1.78196C9.60578 1.96633 9.2015 2.23657 8.86099 2.57724L8.15433 3.2839L7.44766 2.57724C6.75986 1.88944 5.82701 1.50304 4.85433 1.50304C3.88164 1.50304 2.94879 1.88944 2.26099 2.57724C1.5732 3.26503 1.1868 4.19788 1.1868 5.17057C1.1868 6.14326 1.5732 7.07611 2.26099 7.7639L2.96766 8.47057L8.15433 13.6572L13.341 8.47057L14.0477 7.7639C14.3883 7.4234 14.6586 7.01911 14.8429 6.57414C15.0273 6.12917 15.1222 5.65223 15.1222 5.17057C15.1222 4.68891 15.0273 4.21197 14.8429 3.767C14.6586 3.32203 14.3883 2.91774 14.0477 2.57724V2.57724Z" stroke="white" stroke-width="2" stroke-linecap="round" stroke-linejoin="round"/>
</svg>
