<svg width="21" height="18" viewBox="0 0 21 18" fill="none" xmlns="http://www.w3.org/2000/svg">
<path d="M20.9854 4V6.5C20.9854 7.35359 20.8174 8.19883 20.491 8.98744C20.1645 9.77606 19.6861 10.4926 19.0829 11.0962C18.4797 11.6998 17.7636 12.1786 16.9755 12.5052C16.1874 12.8319 15.3427 13 14.4897 13H11.9914V18H9.9927V11L10.0117 10C10.1376 8.36745 10.8745 6.84259 12.0753 5.73022C13.276 4.61785 14.8521 3.99993 16.4884 4H20.9854ZM4.99601 0C6.4644 0.000111207 7.89556 0.462333 9.08695 1.32125C10.2783 2.18016 11.1696 3.39226 11.6346 4.786C10.8699 5.43446 10.2434 6.23024 9.79239 7.12599C9.34137 8.02174 9.07508 8.99914 9.00935 10H7.99402C6.13874 10 4.35944 9.2625 3.04755 7.94975C1.73567 6.63699 0.998657 4.85652 0.998657 3V0H4.99601Z" fill="#8E8EA9"/>
</svg>
