<svg width="19" height="19" viewBox="0 0 19 19" fill="none" xmlns="http://www.w3.org/2000/svg">
<path d="M9.51109 -4.57764e-05C4.67598 -4.57764e-05 0.751831 4.10662 0.751831 9.16662C0.751831 14.2266 4.67598 18.3333 9.51109 18.3333C14.3462 18.3333 18.2703 14.2266 18.2703 9.16662C18.2703 4.10662 14.3462 -4.57764e-05 9.51109 -4.57764e-05ZM9.51109 2.74995C10.9651 2.74995 12.1389 3.97829 12.1389 5.49995C12.1389 7.02162 10.9651 8.24995 9.51109 8.24995C8.05705 8.24995 6.88331 7.02162 6.88331 5.49995C6.88331 3.97829 8.05705 2.74995 9.51109 2.74995ZM9.51109 15.7666C7.32128 15.7666 5.38548 14.5933 4.25553 12.815C4.28181 10.9908 7.75924 9.99162 9.51109 9.99162C11.2542 9.99162 14.7404 10.9908 14.7666 12.815C13.6367 14.5933 11.7009 15.7666 9.51109 15.7666Z" fill="#666687"/>
</svg>
