<svg width="900" height="600" viewBox="0 0 900 600" fill="none" xmlns="http://www.w3.org/2000/svg"><path fill="transparent" d="M0 0h900v600H0z"/><path d="M697.094 363.978c3.466 63.85-121.367 193.682-275.23 145.627-71.561-22.352-65.5-59.451-119.914-108.344-32.434-29.141-79.036-51.178-91.997-93.537-11.197-36.562-4.331-75.86 15.081-101.421 43.658-57.487 131.793-96.851 218.635-6.277 86.841 90.574 244.47-.722 253.425 163.952z" fill="url(#a)"/><path d="M664.579 199.067c-12.253 21.868-39.088 24.873-82.08 20.717-32.333-3.131-61.817-5.554-94.153-23.183-22.632-12.331-40.548-29.014-53.623-45.218-14.17-17.553-33.947-37.587-24.252-57.49 13.324-27.34 90.375-50.366 165.194-12.71 82.189 41.377 100.901 96.512 88.914 117.884z" fill="url(#b)"/><path fill-rule="evenodd" clip-rule="evenodd" d="M591.59 446.795c0-26.073 21.132-47.205 47.205-47.205 26.073 0 47.205 21.132 47.205 47.205m0 0C686 472.868 664.868 494 638.795 494c-26.073 0-47.205-21.132-47.205-47.205" fill="#946BDE"/><path d="M622.943 433.409v9.863m31.705-9.863v9.863m.353 16.205s-6.079 5.636-16.205 5.636c-10.13 0-16.204-5.636-16.204-5.636" stroke="#fff" stroke-width="5.514" stroke-linecap="round" stroke-linejoin="round"/><path fill-rule="evenodd" clip-rule="evenodd" d="M253.267 458.533c-26.103 0-47.267-21.163-47.267-47.266C206 385.164 227.164 364 253.267 364s47.266 21.164 47.266 47.267-21.163 47.266-47.266 47.266z" fill="#946BDE"/><path d="m266.846 404.796-16.944 17.256L239.73 411.7" stroke="#fff" stroke-width="4.719" stroke-linecap="round" stroke-linejoin="round"/><rect x="270.098" y="299.397" width="30.688" height="3.575" rx="1.788" transform="rotate(135 270.098 299.397)" fill="#E1E4E5"/><rect x="258.332" y="299.313" width="11.395" height="3.575" rx="1.788" transform="rotate(135 258.332 299.313)" fill="#E1E4E5"/><rect x="710.485" y="240.602" width="30.688" height="3.575" rx="1.788" transform="rotate(135 710.485 240.602)" fill="#E1E4E5"/><rect x="698.719" y="240.518" width="11.395" height="3.575" rx="1.788" transform="rotate(135 698.719 240.518)" fill="#E1E4E5"/><rect x="544.475" y="411.223" width="30.688" height="3.575" rx="1.788" transform="rotate(135 544.475 411.223)" fill="#E1E4E5"/><rect x="532.709" y="411.139" width="11.395" height="3.575" rx="1.788" transform="rotate(135 532.709 411.139)" fill="#E1E4E5"/><rect x="375.007" y="411.223" width="30.688" height="3.575" rx="1.788" transform="rotate(135 375.007 411.223)" fill="#E1E4E5"/><rect x="363.241" y="411.139" width="11.395" height="3.575" rx="1.788" transform="rotate(135 363.241 411.139)" fill="#E1E4E5"/><path fill-rule="evenodd" clip-rule="evenodd" d="M211.96 189.29h4.188a1.83 1.83 0 0 1 1.829 1.828v4.188a1.83 1.83 0 0 1-1.829 1.829h-4.188a1.835 1.835 0 0 1-1.828-1.829v-4.188a1.824 1.824 0 0 1 1.828-1.828zm14.522 0h4.188c1.005 0 1.829.824 1.829 1.828v4.188a1.83 1.83 0 0 1-1.829 1.829h-4.188a1.835 1.835 0 0 1-1.828-1.829v-4.188c0-1.004.824-1.828 1.828-1.828zm14.532 0h4.188c1.004 0 1.828.824 1.828 1.828v4.188a1.83 1.83 0 0 1-1.828 1.829h-4.188a1.836 1.836 0 0 1-1.829-1.829v-4.188a1.825 1.825 0 0 1 1.829-1.828zm14.521 0h4.189c1.004 0 1.828.824 1.828 1.828v4.188a1.83 1.83 0 0 1-1.828 1.829h-4.189a1.837 1.837 0 0 1-1.837-1.829v-4.188a1.849 1.849 0 0 1 1.837-1.828zm14.523 0h4.189c1.013 0 1.837.824 1.837 1.828v4.188a1.832 1.832 0 0 1-1.837 1.829h-4.189a1.835 1.835 0 0 1-1.828-1.829v-4.188c0-1.004.824-1.828 1.828-1.828zm-43.043 15.835h4.188c1.004 0 1.828.824 1.828 1.828v4.198a1.835 1.835 0 0 1-1.828 1.828h-4.188a1.83 1.83 0 0 1-1.829-1.828v-4.189a1.827 1.827 0 0 1 1.829-1.837zm14.521 0h4.189c1.004 0 1.828.824 1.828 1.828v4.198a1.835 1.835 0 0 1-1.828 1.828h-4.189a1.835 1.835 0 0 1-1.828-1.828v-4.189a1.826 1.826 0 0 1 1.828-1.837zm14.523 0h4.189c1.013 0 1.837.824 1.837 1.828v4.198a1.837 1.837 0 0 1-1.837 1.828h-4.189a1.835 1.835 0 0 1-1.828-1.828v-4.189c0-1.013.824-1.837 1.828-1.837zm-15.045-32.847h4.188c1.004 0 1.828.824 1.828 1.828v4.188a1.83 1.83 0 0 1-1.828 1.829h-4.188a1.836 1.836 0 0 1-1.829-1.829v-4.188a1.825 1.825 0 0 1 1.829-1.828zm14.521 0h4.189c1.004 0 1.828.824 1.828 1.828v4.188a1.83 1.83 0 0 1-1.828 1.829h-4.189a1.837 1.837 0 0 1-1.837-1.829v-4.188a1.849 1.849 0 0 1 1.837-1.828zm160.479 65.431h4.188a1.83 1.83 0 0 1 1.828 1.828v4.189a1.83 1.83 0 0 1-1.828 1.828h-4.188a1.835 1.835 0 0 1-1.829-1.828v-4.189a1.825 1.825 0 0 1 1.829-1.828zm14.521 0h4.189c1.004 0 1.828.824 1.828 1.828v4.189a1.83 1.83 0 0 1-1.828 1.828h-4.189a1.835 1.835 0 0 1-1.828-1.828v-4.189c0-1.004.824-1.828 1.828-1.828zm14.532 0h4.189c1.004 0 1.828.824 1.828 1.828v4.189a1.83 1.83 0 0 1-1.828 1.828h-4.189a1.835 1.835 0 0 1-1.828-1.828v-4.189a1.824 1.824 0 0 1 1.828-1.828zm14.522 0h4.188c1.005 0 1.829.824 1.829 1.828v4.189a1.83 1.83 0 0 1-1.829 1.828h-4.188a1.837 1.837 0 0 1-1.837-1.828v-4.189a1.849 1.849 0 0 1 1.837-1.828zm14.523 0h4.188c1.013 0 1.837.824 1.837 1.828v4.189a1.831 1.831 0 0 1-1.837 1.828h-4.188a1.835 1.835 0 0 1-1.828-1.828v-4.189c0-1.004.824-1.828 1.828-1.828zm-43.044 15.836h4.189c1.004 0 1.828.824 1.828 1.828v4.197a1.835 1.835 0 0 1-1.828 1.828h-4.189a1.83 1.83 0 0 1-1.828-1.828v-4.188a1.826 1.826 0 0 1 1.828-1.837zm14.522 0h4.188c1.005 0 1.829.824 1.829 1.828v4.197a1.835 1.835 0 0 1-1.829 1.828h-4.188a1.835 1.835 0 0 1-1.828-1.828v-4.188a1.826 1.826 0 0 1 1.828-1.837zm14.523 0h4.189c1.012 0 1.836.824 1.836 1.828v4.197a1.837 1.837 0 0 1-1.836 1.828h-4.189a1.835 1.835 0 0 1-1.828-1.828v-4.188c0-1.013.824-1.837 1.828-1.837zm-15.046-32.848h4.189c1.004 0 1.828.824 1.828 1.828v4.189a1.83 1.83 0 0 1-1.828 1.828h-4.189a1.835 1.835 0 0 1-1.828-1.828v-4.189a1.824 1.824 0 0 1 1.828-1.828zm14.522 0h4.188c1.005 0 1.829.824 1.829 1.828v4.189a1.83 1.83 0 0 1-1.829 1.828h-4.188a1.837 1.837 0 0 1-1.837-1.828v-4.189a1.849 1.849 0 0 1 1.837-1.828z" fill="#E1E4E5"/><path fill-rule="evenodd" clip-rule="evenodd" d="M127.127 261.047c0-5.73 4.645-10.376 10.375-10.376h85.311c5.73 0 10.376 4.646 10.376 10.376 0 5.73-4.646 10.375-10.376 10.375h-85.311c-5.73 0-10.375-4.645-10.375-10.375zM805 312.925c0-5.73-4.645-10.376-10.376-10.376h-85.31c-5.73 0-10.376 4.646-10.376 10.376 0 5.73 4.646 10.375 10.376 10.375h85.31c5.731 0 10.376-4.645 10.376-10.375zm-677.873-13.834c0-5.731 4.645-10.376 10.375-10.376h46.114c5.731 0 10.376 4.645 10.376 10.376 0 5.73-4.645 10.375-10.376 10.375h-46.114c-5.73 0-10.375-4.645-10.375-10.375zM805 350.969c0-5.731-4.645-10.376-10.376-10.376h-46.113c-5.731 0-10.376 4.645-10.376 10.376 0 5.73 4.645 10.375 10.376 10.375h46.113c5.731 0 10.376-4.645 10.376-10.375zm-677.873-17.293c0-5.73 4.645-10.376 10.375-10.376h46.114c5.731 0 10.376 4.646 10.376 10.376 0 5.73-4.645 10.376-10.376 10.376h-46.114c-5.73 0-10.375-4.646-10.375-10.376zM805 385.554c0-5.73-4.645-10.375-10.376-10.375h-46.113c-5.731 0-10.376 4.645-10.376 10.375s4.645 10.376 10.376 10.376h46.113c5.731 0 10.376-4.646 10.376-10.376z" fill="#989898" stroke="#E1E4E5" stroke-width="4" stroke-linecap="round" stroke-linejoin="round"/><path d="M769.885 234.934c-16.004 3.791-32.93-9.781-32.93-9.781s9.033-19.712 25.042-23.491c16.003-3.792 32.924 9.769 32.924 9.769s-9.032 19.712-25.036 23.503z" fill="url(#c)"/><path d="M328.801 109.702c16.848 11.605 42.588 3.493 42.588 3.493s-1.594-26.925-18.454-38.519c-16.848-11.605-42.576-3.504-42.576-3.504s1.593 26.925 18.442 38.53z" fill="url(#d)"/><path d="M311.57 521.655c16.211 11.421 41.242 3.823 41.242 3.823s-1.268-26.112-17.49-37.523c-16.21-11.421-41.23-3.834-41.23-3.834s1.268 26.113 17.478 37.534z" fill="url(#e)"/><ellipse cx="718.277" cy="468.862" rx="13.574" ry="12.984" transform="rotate(180 718.277 468.862)" fill="#946BDE"/><ellipse cx="459" cy="127.581" rx="13" ry="12.581" transform="rotate(180 459 127.581)" fill="#946BDE"/><circle r="6.492" transform="matrix(-1 0 0 1 102.492 309.041)" fill="#946BDE"/><circle r="12.394" transform="matrix(-1 0 0 1 727.472 145.475)" fill="#946BDE"/><ellipse rx="13.834" ry="13.258" transform="matrix(-1 0 0 1 545.61 510.638)" fill="#E1E4E5"/><circle r="6.917" transform="matrix(-1 0 0 1 187.075 400.541)" fill="#E1E4E5"/><circle r="4.131" transform="matrix(-1 0 0 1 418.317 534.944)" fill="#E1E4E5"/><circle r="5.902" transform="matrix(-1 0 0 1 662.185 114.773)" fill="#E1E4E5"/><circle r="5.767" transform="scale(1 -1) rotate(-75 -231.015 -297.092)" fill="#E1E4E5"/><circle r="7.672" transform="matrix(-1 0 0 1 270.835 120.002)" fill="#E1E4E5"/><ellipse rx="5.902" ry="4.721" transform="matrix(-1 0 0 1 732.508 286.519)" fill="#E1E4E5"/><circle r="12.003" transform="scale(1 -1) rotate(-75 174.365 -419.767)" fill="#E1E4E5"/><path d="M789.029 250.671h.154c.914 12.954 10.548 13.153 10.548 13.153s-10.623.208-10.623 15.176c0-14.968-10.623-15.176-10.623-15.176s9.629-.199 10.544-13.153zm-643.743-78.393h.266c1.575 22.669 18.166 23.018 18.166 23.018s-18.296.363-18.296 26.557c0-26.194-18.295-26.557-18.295-26.557s16.585-.349 18.159-23.018z" fill="#E1E4E5"/><path d="M291.181 310.589c-7.759-59.243 33.124-129.695 120.25-119.01 73.901 9.062 89.92-2.622 121.734-19.27 21.01-10.991 53.877-30.437 80.541 25.17 34.899 72.778-46.946 186.887-120.045 221.884-69.901 33.47-188.407-1.264-202.48-108.774z" fill="#946BDE"/><path d="m386.217 308.577 40.976 41.387 89.429-90.352" stroke="#fff" stroke-width="39.121" stroke-linecap="round" stroke-linejoin="round"/><defs><linearGradient id="a" x1="547.894" y1="746.706" x2="314.389" y2="-306.788" gradientUnits="userSpaceOnUse"><stop stop-color="#989898"/><stop offset="1" stop-color="#EEE"/></linearGradient><linearGradient id="b" x1="582.035" y1="340.791" x2="472.822" y2="-149.967" gradientUnits="userSpaceOnUse"><stop stop-color="#989898"/><stop offset="1" stop-color="#EEE"/></linearGradient><linearGradient id="c" x1="709.62" y1="244.36" x2="849.715" y2="178.175" gradientUnits="userSpaceOnUse"><stop stop-color="#989898"/><stop offset="1" stop-color="#EEE"/></linearGradient><linearGradient id="d" x1="394.432" y1="147.779" x2="261.806" y2="7.929" gradientUnits="userSpaceOnUse"><stop stop-color="#989898"/><stop offset="1" stop-color="#EEE"/></linearGradient><linearGradient id="e" x1="374.79" y1="559.235" x2="247.685" y2="422.326" gradientUnits="userSpaceOnUse"><stop stop-color="#989898"/><stop offset="1" stop-color="#EEE"/></linearGradient></defs></svg>