<svg width="250" height="136" viewBox="0 0 250 136" fill="none" xmlns="http://www.w3.org/2000/svg">
<path fill-rule="evenodd" clip-rule="evenodd" d="M212.963 26.9137C217.438 26.9137 221.065 30.4434 221.065 34.7976C221.065 39.1517 217.438 42.6815 212.963 42.6815H166.667C171.141 42.6815 174.769 46.2112 174.769 50.5654C174.769 54.9195 171.141 58.4492 166.667 58.4492H192.13C196.604 58.4492 200.232 61.979 200.232 66.3331C200.232 70.6873 196.604 74.217 192.13 74.217H180.354C174.713 74.217 170.139 77.7468 170.139 82.1009C170.139 85.0037 172.454 87.6316 177.083 89.9848C181.558 89.9848 185.185 93.5145 185.185 97.8687C185.185 102.223 181.558 105.753 177.083 105.753H81.0186C76.544 105.753 72.9167 102.223 72.9167 97.8687C72.9167 93.5145 76.544 89.9848 81.0186 89.9848H35.8797C31.4052 89.9848 27.7778 86.4551 27.7778 82.1009C27.7778 77.7468 31.4052 74.217 35.8797 74.217H82.176C86.6505 74.217 90.2778 70.6873 90.2778 66.3331C90.2778 61.979 86.6505 58.4492 82.176 58.4492H53.2408C48.7663 58.4492 45.1389 54.9195 45.1389 50.5654C45.1389 46.2112 48.7663 42.6815 53.2408 42.6815H99.5371C95.0626 42.6815 91.4352 39.1517 91.4352 34.7976C91.4352 30.4434 95.0626 26.9137 99.5371 26.9137H212.963ZM212.963 58.4492C217.438 58.4492 221.065 61.979 221.065 66.3331C221.065 70.6873 217.438 74.217 212.963 74.217C208.489 74.217 204.861 70.6873 204.861 66.3331C204.861 61.979 208.489 58.4492 212.963 58.4492Z" fill="#DED4EF"/>
<path fill-rule="evenodd" clip-rule="evenodd" d="M151.241 25.7876L162.007 102.197L162.974 109.863C163.285 112.332 161.481 114.58 158.943 114.883L91.1649 122.981C88.6271 123.285 86.3172 121.528 86.0056 119.059L75.5707 36.3597C75.4149 35.1249 76.3172 34.001 77.5861 33.8494C77.5941 33.8484 77.6022 33.8475 77.6102 33.8465L83.2333 33.2328L151.241 25.7876ZM87.7802 32.7365L93.0893 32.157Z" fill="white"/>
<path d="M87.7802 32.7365L93.0893 32.157M151.241 25.7876L162.007 102.197L162.974 109.863C163.285 112.332 161.481 114.58 158.943 114.883L91.1649 122.981C88.6271 123.285 86.3172 121.528 86.0056 119.059L75.5707 36.3597C75.4149 35.1249 76.3172 34.001 77.5861 33.8494C77.5941 33.8484 77.6022 33.8475 77.6102 33.8465L83.2333 33.2328L151.241 25.7876Z" stroke="#946BDE" stroke-width="2.5"/>
<path fill-rule="evenodd" clip-rule="evenodd" d="M148.31 30.5955L158.055 99.8428L158.932 106.79C159.214 109.028 157.601 111.062 155.328 111.334L94.6314 118.586C92.3587 118.858 90.2874 117.263 90.005 115.025L80.5721 40.2675C80.4163 39.0327 81.3187 37.9088 82.5876 37.7572L90.0964 36.8601" fill="#F0F0FF"/>
<path fill-rule="evenodd" clip-rule="evenodd" d="M154.2 11.4275H101.472C100.593 11.4275 99.7975 11.7742 99.2215 12.3347C98.6456 12.8951 98.2893 13.6695 98.2893 14.5247V100.121C98.2893 100.976 98.6456 101.751 99.2215 102.311C99.7975 102.872 100.593 103.218 101.472 103.218H169.759C170.638 103.218 171.434 102.872 172.01 102.311C172.586 101.751 172.942 100.976 172.942 100.121V29.6561C172.942 28.8343 172.606 28.0462 172.009 27.4653L156.45 12.334C155.853 11.7535 155.044 11.4275 154.2 11.4275Z" fill="white" stroke="#946BDE" stroke-width="2.5"/>
<path d="M154.713 12.7258V25.7874C154.713 27.6534 156.267 29.1662 158.185 29.1662H167.368" stroke="#946BDE" stroke-width="2.5" stroke-linecap="round" stroke-linejoin="round"/>
<path d="M110.731 86.606H140.824M110.731 29.1663H140.824H110.731ZM110.731 42.6815H160.5H110.731ZM110.731 57.323H160.5H110.731ZM110.731 71.9645H160.5H110.731Z" stroke="#946BDE" stroke-width="2.5" stroke-linecap="round" stroke-linejoin="round"/>
</svg>
