<svg width="14" height="14" viewBox="0 0 14 14" fill="none" xmlns="http://www.w3.org/2000/svg">
<path d="M8.5 5.5V8.5H5.5V5.5H8.5ZM10 5.5H13.75V8.5H10V5.5ZM8.5 13.75H5.5V10H8.5V13.75ZM10 13.75V10H13.75V13C13.75 13.1989 13.671 13.3897 13.5303 13.5303C13.3897 13.671 13.1989 13.75 13 13.75H10ZM8.5 0.25V4H5.5V0.25H8.5ZM10 0.25H13C13.1989 0.25 13.3897 0.329018 13.5303 0.46967C13.671 0.610322 13.75 0.801088 13.75 1V4H10V0.25ZM4 5.5V8.5H0.25V5.5H4ZM4 13.75H1C0.801088 13.75 0.610322 13.671 0.46967 13.5303C0.329018 13.3897 0.25 13.1989 0.25 13V10H4V13.75ZM4 0.25V4H0.25V1C0.25 0.801088 0.329018 0.610322 0.46967 0.46967C0.610322 0.329018 0.801088 0.25 1 0.25H4Z" fill="#8C8C97"/>
</svg>
