<svg width="18" height="15" viewBox="0 0 18 15" fill="none" xmlns="http://www.w3.org/2000/svg">
<path d="M9.96675 3.66201L13.671 0.781259C13.8152 0.669224 13.9954 0.613656 14.1776 0.624979C14.3599 0.636302 14.5318 0.713737 14.661 0.842759L16.9072 3.08826C17.0365 3.21754 17.114 3.38956 17.1254 3.572C17.1367 3.75444 17.081 3.93474 16.9687 4.07901L14.0887 7.78251C14.2918 8.61081 14.304 9.47443 14.1244 10.3081C13.9448 11.1418 13.5781 11.9238 13.052 12.5951C12.5259 13.2663 11.8542 13.8092 11.0875 14.1828C10.3209 14.5563 9.47933 14.7508 8.6265 14.7515C6 14.7515 2.625 13.625 0.75 12.5C3.735 10.25 3.03525 8.89251 3.375 7.62501C4.1685 4.66251 7.0065 2.93226 9.96675 3.66201ZM12.5265 5.07126C12.5752 5.11851 12.624 5.16726 12.6712 5.21676L13.5225 6.06726L15.3787 3.68076L14.0692 2.37126L11.6827 4.22751L12.5265 5.07126V5.07126Z" fill="#8C8C97"/>
</svg>
