<svg width="19" height="18" viewBox="0 0 19 18" fill="none" xmlns="http://www.w3.org/2000/svg">
<path fill-rule="evenodd" clip-rule="evenodd" d="M2.9071 6.894C2.4571 7.101 1.3213 7.7796 1.1773 7.8714C1.09075 7.9251 1.01946 8.00016 0.970284 8.08937C0.92111 8.17858 0.895702 8.27894 0.896503 8.3808V9.61919C0.895872 9.72259 0.922077 9.82437 0.972557 9.91461C1.02304 10.0048 1.09606 10.0804 1.1845 10.134C1.3753 10.2546 2.4823 10.9152 2.9143 11.1114L3.4723 12.4614C3.2923 12.9366 2.9701 14.211 2.9323 14.3766C2.9096 14.4757 2.91257 14.579 2.94092 14.6766C2.96927 14.7742 3.02206 14.863 3.0943 14.9346L3.9691 15.8094C4.04084 15.8813 4.12965 15.9339 4.22723 15.9623C4.32481 15.9906 4.42798 15.9937 4.5271 15.9714L4.54987 15.9656C4.82051 15.8963 6.00952 15.5919 6.4423 15.4314L7.7923 15.9894C7.9993 16.4394 8.67789 17.5752 8.76969 17.7192C8.82403 17.8052 8.89923 17.876 8.9883 17.9251C9.07736 17.9742 9.1774 17.9999 9.27909 18H10.5157C10.6191 18.0006 10.7209 17.9744 10.8111 17.9239C10.9013 17.8735 10.9769 17.8004 11.0305 17.712C11.1511 17.5212 11.8117 16.4142 12.0079 15.9822L13.3579 15.4242C13.8331 15.6042 15.1075 15.9264 15.2731 15.9642C15.3722 15.9869 15.4755 15.9839 15.5731 15.9556C15.6707 15.9272 15.7595 15.8744 15.8311 15.8022L16.7059 14.9274C16.7778 14.8557 16.8304 14.7668 16.8588 14.6693C16.8871 14.5717 16.8902 14.4685 16.8679 14.3694L16.8621 14.3466C16.7928 14.076 16.4884 12.887 16.3279 12.4542L16.8859 11.1042C17.3359 10.8972 18.4717 10.2186 18.6157 10.1268C18.7016 10.0725 18.7725 9.99725 18.8216 9.90819C18.8707 9.81913 18.8964 9.71909 18.8965 9.61739V8.3808C18.8964 8.27849 18.87 8.17793 18.8199 8.08873C18.7698 7.99954 18.6976 7.92471 18.6103 7.8714C18.4195 7.7508 17.3125 7.0902 16.8805 6.894L16.3225 5.544C16.5025 5.0688 16.8247 3.7944 16.8625 3.6288C16.8852 3.52969 16.8822 3.42643 16.8539 3.32878C16.8255 3.23114 16.7727 3.14235 16.7005 3.0708L15.8257 2.1906C15.7539 2.11864 15.6651 2.06604 15.5676 2.03771C15.47 2.00938 15.3668 2.00625 15.2677 2.0286L15.245 2.03442C14.9744 2.10367 13.7853 2.40804 13.3525 2.5686L12.0025 2.0106C11.7955 1.5606 11.1169 0.4248 11.0251 0.2808C10.9708 0.194836 10.8956 0.124013 10.8065 0.0749177C10.7174 0.0258226 10.6174 5.09469e-05 10.5157 0H9.27729C9.17499 0.000112119 9.07442 0.0264868 8.98523 0.0765986C8.89604 0.12671 8.8212 0.198881 8.76789 0.2862C8.64729 0.477 7.9867 1.584 7.7905 2.016L6.4405 2.574C5.9653 2.394 4.6909 2.0718 4.5253 2.034C4.42619 2.0113 4.32293 2.01427 4.22528 2.04262C4.12764 2.07097 4.03885 2.12376 3.9673 2.196L3.0871 3.0708C3.01514 3.14254 2.96254 3.23135 2.93421 3.32893C2.90588 3.42651 2.90275 3.52968 2.9251 3.6288C2.9268 3.63543 2.92874 3.64303 2.93092 3.65153C3.00017 3.92207 3.30454 5.1112 3.4651 5.544L2.9071 6.894ZM9.89648 12.75C11.9676 12.75 13.6465 11.0711 13.6465 9C13.6465 6.92893 11.9676 5.25 9.89648 5.25C7.82542 5.25 6.14648 6.92893 6.14648 9C6.14648 11.0711 7.82542 12.75 9.89648 12.75Z" fill="#8E8EA9"/>
</svg>
