<svg width="16" height="16" viewBox="0 0 16 16" fill="none" xmlns="http://www.w3.org/2000/svg">
<path d="M3.6275 12.4999C3.78245 12.0607 4.0698 11.6805 4.44995 11.4115C4.8301 11.1425 5.28432 10.998 5.75 10.998C6.21568 10.998 6.6699 11.1425 7.05005 11.4115C7.4302 11.6805 7.71755 12.0607 7.8725 12.4999H15.5V13.9999H7.8725C7.71755 14.439 7.4302 14.8193 7.05005 15.0883C6.6699 15.3573 6.21568 15.5017 5.75 15.5017C5.28432 15.5017 4.8301 15.3573 4.44995 15.0883C4.0698 14.8193 3.78245 14.439 3.6275 13.9999H0.5V12.4999H3.6275ZM8.1275 7.24989C8.28245 6.81074 8.5698 6.43046 8.94995 6.16148C9.3301 5.89249 9.78432 5.74805 10.25 5.74805C10.7157 5.74805 11.1699 5.89249 11.5501 6.16148C11.9302 6.43046 12.2175 6.81074 12.3725 7.24989H15.5V8.74989H12.3725C12.2175 9.18903 11.9302 9.56931 11.5501 9.83829C11.1699 10.1073 10.7157 10.2517 10.25 10.2517C9.78432 10.2517 9.3301 10.1073 8.94995 9.83829C8.5698 9.56931 8.28245 9.18903 8.1275 8.74989H0.5V7.24989H8.1275ZM3.6275 1.99988C3.78245 1.56074 4.0698 1.18046 4.44995 0.911477C4.8301 0.642494 5.28432 0.498047 5.75 0.498047C6.21568 0.498047 6.6699 0.642494 7.05005 0.911477C7.4302 1.18046 7.71755 1.56074 7.8725 1.99988H15.5V3.49988H7.8725C7.71755 3.93903 7.4302 4.31931 7.05005 4.58829C6.6699 4.85728 6.21568 5.00172 5.75 5.00172C5.28432 5.00172 4.8301 4.85728 4.44995 4.58829C4.0698 4.31931 3.78245 3.93903 3.6275 3.49988H0.5V1.99988H3.6275Z" fill="#8E8EA9"/>
</svg>
