<svg width="22" height="22" viewBox="0 0 22 22" fill="none" xmlns="http://www.w3.org/2000/svg">
<path d="M10.1416 4H4.0166C3.55247 4 3.10735 4.18437 2.77916 4.51256C2.45098 4.84075 2.2666 5.28587 2.2666 5.75V18C2.2666 18.4641 2.45098 18.9092 2.77916 19.2374C3.10735 19.5656 3.55247 19.75 4.0166 19.75H16.2666C16.7307 19.75 17.1758 19.5656 17.504 19.2374C17.8322 18.9092 18.0166 18.4641 18.0166 18V11.875" stroke="#666687" stroke-width="2" stroke-linecap="round" stroke-linejoin="round"/>
<path d="M16.7041 2.6877C17.0522 2.3396 17.5243 2.14404 18.0166 2.14404C18.5089 2.14404 18.981 2.3396 19.3291 2.6877C19.6772 3.03579 19.8728 3.50792 19.8728 4.0002C19.8728 4.49248 19.6772 4.9646 19.3291 5.3127L11.0166 13.6252L7.5166 14.5002L8.3916 11.0002L16.7041 2.6877Z" stroke="#666687" stroke-width="2" stroke-linecap="round" stroke-linejoin="round"/>
</svg>
