<svg width="24" height="24" viewBox="0 0 24 24" fill="none" xmlns="http://www.w3.org/2000/svg">
<path d="M21.75 3C21.75 2.80109 21.6709 2.61032 21.5303 2.46967C21.3896 2.32902 21.1989 2.25 21 2.25C16.8675 2.25 12.6271 6.91031 10.2721 9.99656C9.43109 9.73898 8.54134 9.68224 7.67437 9.83089C6.8074 9.97954 5.98738 10.3294 5.28017 10.8525C4.57295 11.3755 3.99826 12.0571 3.60225 12.8426C3.20624 13.628 2.99996 14.4954 2.99996 15.375C2.99996 18.27 1.16808 19.5684 1.0809 19.6284C0.947855 19.7183 0.847149 19.8484 0.793587 19.9998C0.740026 20.1511 0.736435 20.3156 0.783343 20.4692C0.830251 20.6227 0.925182 20.7571 1.05418 20.8527C1.18317 20.9482 1.33943 20.9999 1.49996 21H8.62496C9.50458 21 10.3719 20.7937 11.1574 20.3977C11.9428 20.0017 12.6244 19.427 13.1475 18.7198C13.6705 18.0126 14.0204 17.1926 14.1691 16.3256C14.3177 15.4586 14.261 14.5689 14.0034 13.7278C17.0906 11.3728 21.75 7.1325 21.75 3ZM11.6643 10.6453C11.9856 10.2291 12.3009 9.83688 12.6103 9.46875C13.3675 9.98035 14.0196 10.6324 14.5312 11.3897C14.1625 11.6984 13.7703 12.0138 13.3546 12.3356C12.9176 11.6586 12.3414 11.0824 11.6643 10.6453ZM15.6675 10.3941C15.1012 9.59512 14.4039 8.89778 13.605 8.33156C16.5843 5.09438 18.8315 4.11281 20.1581 3.84C19.8909 5.1675 18.9046 7.41469 15.6675 10.3941Z" fill="#7A7A7A"/>
</svg>
