<svg width="24" height="24" viewBox="0 0 24 24" fill="none" xmlns="http://www.w3.org/2000/svg">
<path d="M8.14694 6.92062C8.00132 6.77506 7.88581 6.60224 7.80699 6.41202C7.72818 6.2218 7.68762 6.01793 7.68762 5.81203C7.68762 5.60613 7.72818 5.40226 7.80699 5.21204C7.88581 5.02183 8.00132 4.849 8.14694 4.70344L10.891 1.95844C11.1854 1.66475 11.5842 1.49982 12.0001 1.49982C12.4159 1.49982 12.8147 1.66475 13.1091 1.95844L15.8532 4.70344C15.9988 4.849 16.1143 5.02183 16.1931 5.21204C16.2719 5.40226 16.3125 5.60613 16.3125 5.81203C16.3125 6.01793 16.2719 6.2218 16.1931 6.41202C16.1143 6.60224 15.9988 6.77506 15.8532 6.92062L13.1091 9.66562C12.8147 9.95931 12.4159 10.1242 12.0001 10.1242C11.5842 10.1242 11.1854 9.95931 10.891 9.66562L8.14694 6.92062ZM22.0416 10.8909L19.2966 8.14594C19.0024 7.85231 18.6037 7.6874 18.188 7.6874C17.7724 7.6874 17.3737 7.85231 17.0794 8.14594L14.3344 10.8909C14.0407 11.1853 13.8758 11.5842 13.8758 12C13.8758 12.4158 14.0407 12.8147 14.3344 13.1091L17.0794 15.8541C17.3737 16.1477 17.7724 16.3126 18.188 16.3126C18.6037 16.3126 19.0024 16.1477 19.2966 15.8541L22.0416 13.1091C22.3353 12.8147 22.5002 12.4158 22.5002 12C22.5002 11.5842 22.3353 11.1853 22.0416 10.8909ZM9.66662 10.8909L6.92069 8.14594C6.62646 7.85231 6.22777 7.6874 5.81209 7.6874C5.39642 7.6874 4.99772 7.85231 4.7035 8.14594L1.9585 10.8909C1.66481 11.1853 1.49988 11.5842 1.49988 12C1.49988 12.4158 1.66481 12.8147 1.9585 13.1091L4.7035 15.8541C4.99772 16.1477 5.39642 16.3126 5.81209 16.3126C6.22777 16.3126 6.62646 16.1477 6.92069 15.8541L9.66569 13.1091C9.95937 12.8147 10.1243 12.4158 10.1243 12C10.1243 11.5842 9.95937 11.1853 9.66569 10.8909H9.66662ZM13.1101 14.3344C12.8157 14.0407 12.4168 13.8758 12.001 13.8758C11.5852 13.8758 11.1863 14.0407 10.8919 14.3344L8.14694 17.0794C8.00132 17.2249 7.88581 17.3978 7.80699 17.588C7.72818 17.7782 7.68762 17.9821 7.68762 18.188C7.68762 18.3939 7.72818 18.5977 7.80699 18.788C7.88581 18.9782 8.00132 19.151 8.14694 19.2966L10.891 22.0416C11.1854 22.3352 11.5842 22.5002 12.0001 22.5002C12.4159 22.5002 12.8147 22.3352 13.1091 22.0416L15.8532 19.2966C15.9988 19.151 16.1143 18.9782 16.1931 18.788C16.2719 18.5977 16.3125 18.3939 16.3125 18.188C16.3125 17.9821 16.2719 17.7782 16.1931 17.588C16.1143 17.3978 15.9988 17.2249 15.8532 17.0794L13.1101 14.3344Z" fill="#7A7A7A"/>
</svg>
