<svg width="17" height="17" viewBox="0 0 17 17" fill="none" xmlns="http://www.w3.org/2000/svg">
<path d="M7.70001 1.98822V6.48822C7.70001 6.88604 7.54198 7.26758 7.26067 7.54888C6.97937 7.83018 6.59784 7.98822 6.20001 7.98822H1.70001C1.30219 7.98822 0.920657 7.83018 0.639352 7.54888C0.358047 7.26758 0.200012 6.88604 0.200012 6.48822V1.98822C0.200012 1.5904 0.358047 1.20886 0.639352 0.92756C0.920657 0.646255 1.30219 0.48822 1.70001 0.48822H6.20001C6.59784 0.48822 6.97937 0.646255 7.26067 0.92756C7.54198 1.20886 7.70001 1.5904 7.70001 1.98822ZM15.2 0.48822H10.7C10.3022 0.48822 9.92066 0.646255 9.63935 0.92756C9.35805 1.20886 9.20001 1.5904 9.20001 1.98822V6.48822C9.20001 6.88604 9.35805 7.26758 9.63935 7.54888C9.92066 7.83018 10.3022 7.98822 10.7 7.98822H15.2C15.5978 7.98822 15.9794 7.83018 16.2607 7.54888C16.542 7.26758 16.7 6.88604 16.7 6.48822V1.98822C16.7 1.5904 16.542 1.20886 16.2607 0.92756C15.9794 0.646255 15.5978 0.48822 15.2 0.48822ZM6.20001 9.48822H1.70001C1.30219 9.48822 0.920657 9.64626 0.639352 9.92756C0.358047 10.2089 0.200012 10.5904 0.200012 10.9882V15.4882C0.200012 15.886 0.358047 16.2676 0.639352 16.5489C0.920657 16.8302 1.30219 16.9882 1.70001 16.9882H6.20001C6.59784 16.9882 6.97937 16.8302 7.26067 16.5489C7.54198 16.2676 7.70001 15.886 7.70001 15.4882V10.9882C7.70001 10.5904 7.54198 10.2089 7.26067 9.92756C6.97937 9.64626 6.59784 9.48822 6.20001 9.48822ZM15.2 9.48822H10.7C10.3022 9.48822 9.92066 9.64626 9.63935 9.92756C9.35805 10.2089 9.20001 10.5904 9.20001 10.9882V15.4882C9.20001 15.886 9.35805 16.2676 9.63935 16.5489C9.92066 16.8302 10.3022 16.9882 10.7 16.9882H15.2C15.5978 16.9882 15.9794 16.8302 16.2607 16.5489C16.542 16.2676 16.7 15.886 16.7 15.4882V10.9882C16.7 10.5904 16.542 10.2089 16.2607 9.92756C15.9794 9.64626 15.5978 9.48822 15.2 9.48822Z" fill="#7A7A7A"/>
</svg>
