<svg width="30" height="24" viewBox="0 0 30 24" fill="none" xmlns="http://www.w3.org/2000/svg">
<path d="M27.4286 3.42857H15.2386L11.2743 0.457143C10.8794 0.160992 10.3993 0.000617494 9.90571 0H2.28571C1.67951 0 1.09812 0.240816 0.66947 0.66947C0.240816 1.09812 0 1.67951 0 2.28571V21.7143C0 22.3205 0.240816 22.9019 0.66947 23.3305C1.09812 23.7592 1.67951 24 2.28571 24H27.5557C28.128 23.9992 28.6766 23.7716 29.0812 23.3669C29.4859 22.9623 29.7135 22.4137 29.7143 21.8414V5.71429C29.7143 5.10808 29.4735 4.5267 29.0448 4.09804C28.6162 3.66939 28.0348 3.42857 27.4286 3.42857Z" fill="#7A7A7A"/>
</svg>
