<svg width="24" height="24" viewBox="0 0 24 24" fill="none" xmlns="http://www.w3.org/2000/svg">
<path d="M20.25 12.2025C20.2538 12.0675 20.2538 11.9325 20.25 11.7975L21.6488 10.05C21.7221 9.95823 21.7729 9.85053 21.797 9.73557C21.8211 9.62061 21.8179 9.50159 21.7875 9.38811C21.5578 8.52631 21.2148 7.69878 20.7675 6.92717C20.7089 6.82622 20.6276 6.74034 20.5299 6.67638C20.4322 6.61242 20.321 6.57213 20.205 6.55873L17.9813 6.31123C17.8888 6.21373 17.795 6.11998 17.7 6.02998L17.4375 3.80061C17.424 3.68456 17.3836 3.57326 17.3195 3.4756C17.2554 3.37794 17.1693 3.29662 17.0682 3.23811C16.2966 2.79115 15.469 2.44878 14.6072 2.21998C14.4937 2.18966 14.3747 2.18642 14.2598 2.21052C14.1448 2.23462 14.0371 2.28539 13.9454 2.35873L12.2025 3.74998C12.0675 3.74998 11.9325 3.74998 11.7975 3.74998L10.05 2.35404C9.95829 2.2807 9.8506 2.22994 9.73563 2.20584C9.62067 2.18174 9.50165 2.18498 9.38817 2.21529C8.52637 2.44501 7.69884 2.788 6.92723 3.23529C6.82628 3.29391 6.7404 3.37529 6.67644 3.47294C6.61248 3.57059 6.57219 3.68183 6.55879 3.79779L6.31129 6.02529C6.21379 6.11842 6.12004 6.21217 6.03004 6.30654L3.80067 6.56248C3.68462 6.57598 3.57333 6.61641 3.47567 6.68054C3.37801 6.74467 3.29668 6.83073 3.23817 6.93186C2.79131 7.70357 2.44864 8.53108 2.21911 9.3928C2.18891 9.50635 2.18583 9.62541 2.21009 9.74038C2.23435 9.85534 2.28529 9.963 2.35879 10.0547L3.75004 11.7975C3.75004 11.9325 3.75004 12.0675 3.75004 12.2025L2.35411 13.95C2.28076 14.0417 2.23 14.1494 2.2059 14.2644C2.1818 14.3794 2.18504 14.4984 2.21536 14.6119C2.44507 15.4737 2.78806 16.3012 3.23536 17.0728C3.29397 17.1737 3.37535 17.2596 3.473 17.3236C3.57065 17.3875 3.68189 17.4278 3.79786 17.4412L6.02161 17.6887C6.11473 17.7862 6.20848 17.88 6.30286 17.97L6.56254 20.1994C6.57604 20.3154 6.61647 20.4267 6.6806 20.5244C6.74473 20.622 6.83079 20.7033 6.93192 20.7619C7.70363 21.2087 8.53114 21.5514 9.39286 21.7809C9.50641 21.8111 9.62547 21.8142 9.74044 21.7899C9.8554 21.7657 9.96306 21.7147 10.0547 21.6412L11.7975 20.25C11.9325 20.2537 12.0675 20.2537 12.2025 20.25L13.95 21.6487C14.0418 21.7221 14.1495 21.7728 14.2645 21.7969C14.3794 21.821 14.4984 21.8178 14.6119 21.7875C15.4739 21.5582 16.3014 21.2152 17.0729 20.7675C17.1738 20.7089 17.2597 20.6275 17.3236 20.5298C17.3876 20.4322 17.4279 20.3209 17.4413 20.205L17.6888 17.9812C17.7863 17.8887 17.88 17.795 17.97 17.7L20.1994 17.4375C20.3155 17.424 20.4268 17.3836 20.5244 17.3194C20.6221 17.2553 20.7034 17.1692 20.7619 17.0681C21.2088 16.2964 21.5514 15.4689 21.781 14.6072C21.8112 14.4936 21.8143 14.3746 21.79 14.2596C21.7657 14.1446 21.7148 14.037 21.6413 13.9453L20.25 12.2025ZM12 15.75C11.2584 15.75 10.5333 15.53 9.91666 15.118C9.29997 14.7059 8.81932 14.1203 8.53549 13.435C8.25167 12.7498 8.1774 11.9958 8.3221 11.2684C8.46679 10.541 8.82395 9.87278 9.34839 9.34833C9.87284 8.82389 10.541 8.46673 11.2685 8.32204C11.9959 8.17734 12.7499 8.25161 13.4351 8.53543C14.1203 8.81926 14.706 9.29991 15.1181 9.91659C15.5301 10.5333 15.75 11.2583 15.75 12C15.75 12.9945 15.355 13.9484 14.6517 14.6516C13.9484 15.3549 12.9946 15.75 12 15.75Z" fill="#7A7A7A"/>
</svg>
