<svg width="19" height="20" viewBox="0 0 19 20" fill="none" xmlns="http://www.w3.org/2000/svg">
<path d="M18.95 9.57103V18.2382C18.95 18.636 18.792 19.0176 18.5107 19.2989C18.2294 19.5802 17.8478 19.7382 17.45 19.7382H13.7C13.3022 19.7382 12.9207 19.5802 12.6394 19.2989C12.358 19.0176 12.2 18.636 12.2 18.2382V14.4882C12.2 14.2893 12.121 14.0985 11.9803 13.9579C11.8397 13.8172 11.6489 13.7382 11.45 13.7382H8.45001C8.2511 13.7382 8.06033 13.8172 7.91968 13.9579C7.77903 14.0985 7.70001 14.2893 7.70001 14.4882V18.2382C7.70001 18.636 7.54198 19.0176 7.26067 19.2989C6.97937 19.5802 6.59784 19.7382 6.20001 19.7382H2.45001C2.05219 19.7382 1.67066 19.5802 1.38935 19.2989C1.10805 19.0176 0.950012 18.636 0.950012 18.2382V9.57103C0.949981 9.36343 0.993043 9.15808 1.07647 8.96798C1.1599 8.77788 1.28189 8.60717 1.4347 8.46665L8.9347 1.3904L8.94501 1.38009C9.22114 1.12896 9.58098 0.989807 9.95423 0.989807C10.3275 0.989807 10.6873 1.12896 10.9634 1.38009C10.9666 1.38376 10.9701 1.3872 10.9738 1.3904L18.4738 8.46665C18.625 8.60791 18.7455 8.77895 18.8274 8.96902C18.9094 9.15908 18.9511 9.36405 18.95 9.57103Z" fill="#7A7A7A"/>
</svg>
