<svg width="19" height="20" viewBox="0 0 19 20" fill="none" xmlns="http://www.w3.org/2000/svg">
<path d="M18.1672 16.9773L15.0556 2.18353C15.0154 1.99007 14.9373 1.80647 14.8259 1.64327C14.7145 1.48007 14.5719 1.34049 14.4064 1.23256C14.2409 1.12462 14.0557 1.05045 13.8614 1.01431C13.6671 0.978174 13.4676 0.980775 13.2744 1.02197L8.88595 1.96509C8.49778 2.05009 8.15886 2.2849 7.94292 2.61848C7.72697 2.95205 7.65147 3.35739 7.73282 3.74634L10.8444 18.5401C10.9137 18.8776 11.0972 19.181 11.3638 19.3992C11.6305 19.6174 11.9642 19.7371 12.3088 19.7382C12.4153 19.7381 12.5215 19.7268 12.6256 19.7045L17.0141 18.7613C17.4027 18.6761 17.742 18.4409 17.9579 18.1067C18.1739 17.7726 18.2491 17.3666 18.1672 16.9773ZM9.20001 3.43978C9.20001 3.43415 9.20001 3.43134 9.20001 3.43134L13.5875 2.49384L13.8997 3.98165L9.5122 4.92572L9.20001 3.43978ZM10.1375 7.88165L9.82345 6.39103L14.2128 5.4479L14.5259 6.93853L10.1375 7.88165ZM16.7 17.2951L12.3125 18.2326L12.0003 16.7448L16.3878 15.8007L16.7 17.2867C16.7 17.2923 16.7 17.2951 16.7 17.2951ZM6.20001 1.73822H1.70001C1.30219 1.73822 0.920657 1.89625 0.639352 2.17756C0.358047 2.45886 0.200012 2.84039 0.200012 3.23822V18.2382C0.200012 18.636 0.358047 19.0176 0.639352 19.2989C0.920657 19.5802 1.30219 19.7382 1.70001 19.7382H6.20001C6.59784 19.7382 6.97937 19.5802 7.26067 19.2989C7.54198 19.0176 7.70001 18.636 7.70001 18.2382V3.23822C7.70001 2.84039 7.54198 2.45886 7.26067 2.17756C6.97937 1.89625 6.59784 1.73822 6.20001 1.73822ZM1.70001 3.23822H6.20001V4.73822H1.70001V3.23822ZM6.20001 18.2382H1.70001V16.7382H6.20001V18.2382Z" fill="#7A7A7A"/>
</svg>
