<svg width="20" height="20" viewBox="0 0 20 20" fill="none" xmlns="http://www.w3.org/2000/svg">
<path d="M19.5997 19.3632C19.5339 19.4772 19.4392 19.5719 19.3251 19.6378C19.2111 19.7036 19.0817 19.7382 18.95 19.7382H0.950037C0.818449 19.7381 0.689214 19.7033 0.575306 19.6374C0.461399 19.5716 0.36683 19.4769 0.301094 19.3629C0.235359 19.2489 0.200772 19.1196 0.200806 18.988C0.200839 18.8564 0.235493 18.7272 0.301287 18.6132C1.7291 16.1448 3.92941 14.3748 6.49722 13.5357C5.22707 12.7796 4.24024 11.6274 3.68827 10.2561C3.13631 8.88487 3.04974 7.37033 3.44186 5.9451C3.83397 4.51987 4.68309 3.26276 5.85881 2.36682C7.03453 1.47088 8.47185 0.985657 9.95004 0.985657C11.4282 0.985657 12.8655 1.47088 14.0413 2.36682C15.217 3.26276 16.0661 4.51987 16.4582 5.9451C16.8503 7.37033 16.7638 8.88487 16.2118 10.2561C15.6598 11.6274 14.673 12.7796 13.4029 13.5357C15.9707 14.3748 18.171 16.1448 19.5988 18.6132C19.6648 18.7271 19.6996 18.8564 19.6997 18.9881C19.6999 19.1197 19.6654 19.2491 19.5997 19.3632Z" fill="#7A7A7A"/>
</svg>
