<svg width="24" height="24" viewBox="0 0 24 24" fill="none" xmlns="http://www.w3.org/2000/svg">
<path d="M22.5 5.25001V9.75001C22.5 9.94892 22.421 10.1397 22.2803 10.2803C22.1397 10.421 21.9489 10.5 21.75 10.5H17.25C17.1016 10.5001 16.9565 10.4562 16.833 10.3738C16.7096 10.2914 16.6134 10.1742 16.5565 10.0371C16.4997 9.89999 16.4849 9.74909 16.5139 9.60353C16.5428 9.45797 16.6144 9.32428 16.7194 9.21939L18.3131 7.62564L17.3241 6.72095L17.3006 6.69845C16.2582 5.65641 14.9318 4.94463 13.4872 4.65202C12.0426 4.35942 10.5438 4.49897 9.17803 5.05323C7.81227 5.60749 6.6401 6.5519 5.80795 7.76848C4.9758 8.98505 4.52057 10.4199 4.49913 11.8936C4.47769 13.3674 4.89098 14.8149 5.68738 16.0551C6.48378 17.2954 7.62798 18.2735 8.97704 18.8673C10.3261 19.461 11.8202 19.6441 13.2727 19.3937C14.7252 19.1432 16.0718 18.4703 17.1441 17.4591C17.2157 17.3914 17.2999 17.3384 17.3919 17.3032C17.484 17.2681 17.5821 17.2514 17.6806 17.2541C17.7791 17.2569 17.8761 17.279 17.966 17.3192C18.056 17.3595 18.1371 17.417 18.2049 17.4886C18.2726 17.5602 18.3255 17.6444 18.3607 17.7365C18.3958 17.8285 18.4125 17.9266 18.4098 18.0251C18.407 18.1236 18.3849 18.2206 18.3447 18.3106C18.3045 18.4005 18.2469 18.4817 18.1753 18.5494C16.5077 20.1285 14.2967 21.006 12 21H11.8763C10.4023 20.9798 8.95579 20.5979 7.66397 19.8877C6.37216 19.1776 5.27455 18.161 4.46762 16.9274C3.6607 15.6937 3.16915 14.2807 3.0362 12.8126C2.90324 11.3445 3.13294 9.86616 3.70511 8.5076C4.27728 7.14903 5.1744 5.95181 6.31762 5.02116C7.46085 4.09051 8.81517 3.45492 10.2616 3.17026C11.7079 2.88559 13.2021 2.96057 14.6127 3.38859C16.0234 3.81662 17.3073 4.58459 18.3516 5.62501L19.3763 6.56251L21.2194 4.71564C21.3245 4.6104 21.4585 4.53879 21.6044 4.50992C21.7504 4.48105 21.9016 4.49622 22.0388 4.5535C22.1761 4.61078 22.2933 4.70759 22.3754 4.83161C22.4575 4.95563 22.5009 5.10127 22.5 5.25001Z" fill="#7A7A7A"/>
</svg>
