<svg width="24" height="24" viewBox="0 0 24 24" fill="none" xmlns="http://www.w3.org/2000/svg">
<path d="M19.5 3.75H4.5C4.10218 3.75 3.72064 3.90804 3.43934 4.18934C3.15804 4.47064 3 4.85218 3 5.25V9.75C3 10.1478 3.15804 10.5294 3.43934 10.8107C3.72064 11.092 4.10218 11.25 4.5 11.25H19.5C19.8978 11.25 20.2794 11.092 20.5607 10.8107C20.842 10.5294 21 10.1478 21 9.75V5.25C21 4.85218 20.842 4.47064 20.5607 4.18934C20.2794 3.90804 19.8978 3.75 19.5 3.75ZM16.875 8.625C16.6525 8.625 16.435 8.55902 16.25 8.4354C16.065 8.31179 15.9208 8.13609 15.8356 7.93052C15.7505 7.72495 15.7282 7.49875 15.7716 7.28052C15.815 7.06229 15.9222 6.86184 16.0795 6.7045C16.2368 6.54717 16.4373 6.44002 16.6555 6.39662C16.8738 6.35321 17.1 6.37549 17.3055 6.46064C17.5111 6.54578 17.6868 6.68998 17.8104 6.87498C17.934 7.05999 18 7.2775 18 7.5C18 7.79837 17.8815 8.08452 17.6705 8.2955C17.4595 8.50647 17.1734 8.625 16.875 8.625Z" fill="#7A7A7A"/>
<path d="M19.5 12.75H4.5C4.10218 12.75 3.72064 12.908 3.43934 13.1893C3.15804 13.4706 3 13.8522 3 14.25V18.75C3 19.1478 3.15804 19.5294 3.43934 19.8107C3.72064 20.092 4.10218 20.25 4.5 20.25H19.5C19.8978 20.25 20.2794 20.092 20.5607 19.8107C20.842 19.5294 21 19.1478 21 18.75V14.25C21 13.8522 20.842 13.4706 20.5607 13.1893C20.2794 12.908 19.8978 12.75 19.5 12.75ZM16.875 17.625C16.6525 17.625 16.435 17.559 16.25 17.4354C16.065 17.3118 15.9208 17.1361 15.8356 16.9305C15.7505 16.725 15.7282 16.4988 15.7716 16.2805C15.815 16.0623 15.9222 15.8618 16.0795 15.7045C16.2368 15.5472 16.4373 15.44 16.6555 15.3966C16.8738 15.3532 17.1 15.3755 17.3055 15.4606C17.5111 15.5458 17.6868 15.69 17.8104 15.875C17.934 16.06 18 16.2775 18 16.5C18 16.7984 17.8815 17.0845 17.6705 17.2955C17.4595 17.5065 17.1734 17.625 16.875 17.625Z" fill="#7A7A7A"/>
</svg>
