<svg width="24" height="24" viewBox="0 0 24 24" fill="none" xmlns="http://www.w3.org/2000/svg">
<path d="M10.5 20.25C10.5 20.4489 10.421 20.6397 10.2803 20.7803C10.1397 20.921 9.94891 21 9.75 21H4.5C4.10218 21 3.72064 20.842 3.43934 20.5607C3.15804 20.2794 3 19.8978 3 19.5V4.5C3 4.10218 3.15804 3.72064 3.43934 3.43934C3.72064 3.15804 4.10218 3 4.5 3H9.75C9.94891 3 10.1397 3.07902 10.2803 3.21967C10.421 3.36032 10.5 3.55109 10.5 3.75C10.5 3.94891 10.421 4.13968 10.2803 4.28033C10.1397 4.42098 9.94891 4.5 9.75 4.5H4.5V19.5H9.75C9.94891 19.5 10.1397 19.579 10.2803 19.7197C10.421 19.8603 10.5 20.0511 10.5 20.25ZM20.7806 11.4694L17.0306 7.71937C16.9257 7.61437 16.792 7.54284 16.6465 7.51385C16.5009 7.48487 16.35 7.49972 16.2129 7.55653C16.0758 7.61335 15.9586 7.70957 15.8762 7.83301C15.7938 7.95646 15.7499 8.10158 15.75 8.25V11.25H9.75C9.55109 11.25 9.36032 11.329 9.21967 11.4697C9.07902 11.6103 9 11.8011 9 12C9 12.1989 9.07902 12.3897 9.21967 12.5303C9.36032 12.671 9.55109 12.75 9.75 12.75H15.75V15.75C15.7499 15.8984 15.7938 16.0435 15.8762 16.167C15.9586 16.2904 16.0758 16.3867 16.2129 16.4435C16.35 16.5003 16.5009 16.5151 16.6465 16.4861C16.792 16.4572 16.9257 16.3856 17.0306 16.2806L20.7806 12.5306C20.8504 12.461 20.9057 12.3783 20.9434 12.2872C20.9812 12.1962 21.0006 12.0986 21.0006 12C21.0006 11.9014 20.9812 11.8038 20.9434 11.7128C20.9057 11.6217 20.8504 11.539 20.7806 11.4694Z" fill="#7A7A7A"/>
</svg>
