<svg width="15" height="14" viewBox="0 0 15 14" fill="none" xmlns="http://www.w3.org/2000/svg">
<path fill-rule="evenodd" clip-rule="evenodd" d="M13.9585 11.762L10.8587 8.63109C11.3632 7.75267 11.6264 6.77584 11.6264 5.79172C11.6264 2.5988 9.02372 0 5.82892 0C2.63412 0 0.0314941 2.5988 0.0314941 5.79172C0.0314941 8.98464 2.63412 11.5834 5.82892 11.5834C6.84877 11.5834 7.85766 11.3028 8.75688 10.767L11.842 13.887C11.9115 13.9563 12.0102 14 12.1089 14C12.2076 14 12.3063 13.9599 12.3757 13.887L13.9585 12.2905C14.1047 12.1411 14.1047 11.9078 13.9585 11.762V11.762ZM5.82791 2.25586C7.77988 2.25586 9.36631 3.84138 9.36631 5.7914C9.36631 7.74141 7.77988 9.32694 5.82791 9.32694C3.87593 9.32694 2.2895 7.74141 2.2895 5.7914C2.2895 3.84138 3.87593 2.25586 5.82791 2.25586V2.25586Z" fill="#8E8EA9"/>
</svg>
