<svg width="18" height="19" viewBox="0 0 18 19" fill="none" xmlns="http://www.w3.org/2000/svg">
<g clip-path="url(#clip0_1749_3216)">
<path d="M16.5 8.64339V9.33339C16.4991 10.9507 15.9754 12.5244 15.007 13.8198C14.0386 15.1151 12.6775 16.0628 11.1265 16.5213C9.57557 16.9799 7.91794 16.9248 6.40085 16.3643C4.88376 15.8038 3.58849 14.768 2.70822 13.4112C1.82795 12.0544 1.40984 10.4494 1.51626 8.83563C1.62267 7.22182 2.24791 5.68564 3.29871 4.4562C4.34951 3.22676 5.76959 2.36993 7.34714 2.0135C8.92469 1.65708 10.5752 1.82015 12.0525 2.47839" stroke="#989898" stroke-width="2" stroke-linecap="round" stroke-linejoin="round"/>
<path d="M16.5 3.33337L9 10.8409L6.75 8.59087" stroke="#989898" stroke-width="2" stroke-linecap="round" stroke-linejoin="round"/>
</g>
<defs>
<clipPath id="clip0_1749_3216">
<rect width="18" height="18" fill="white" transform="translate(0 0.333374)"/>
</clipPath>
</defs>
</svg>
