<svg width="18" height="18" viewBox="0 0 18 18" fill="none" xmlns="http://www.w3.org/2000/svg">
<path d="M1.14038 1.78235H5.87722C6.71475 1.78235 7.51797 2.13354 8.11019 2.75866C8.70241 3.38378 9.03512 4.23163 9.03512 5.11568V16.7823C9.03512 16.1193 8.78559 15.4834 8.34142 15.0146C7.89726 14.5457 7.29484 14.2823 6.6667 14.2823H1.14038V1.78235Z" stroke="#666687" stroke-width="2" stroke-linecap="round" stroke-linejoin="round"/>
<path d="M16.9299 1.78235H12.1931C11.3555 1.78235 10.5523 2.13354 9.96008 2.75866C9.36786 3.38378 9.03516 4.23163 9.03516 5.11568V16.7823C9.03516 16.1193 9.28469 15.4834 9.72885 15.0146C10.173 14.5457 10.7754 14.2823 11.4036 14.2823H16.9299V1.78235Z" stroke="#666687" stroke-width="2" stroke-linecap="round" stroke-linejoin="round"/>
</svg>
