<svg width="15" height="15" viewBox="0 0 15 15" fill="none" xmlns="http://www.w3.org/2000/svg">
<path d="M8.31536 0.125C8.38026 0.125 8.43283 0.177414 8.43283 0.242071V10.8136L13.2721 5.99106C13.318 5.94536 13.3923 5.94536 13.4382 5.99106L14.5174 7.06647C14.5632 7.11219 14.5632 7.18629 14.5174 7.23201L7.63481 14.0907C7.58893 14.1364 7.51457 14.1364 7.4687 14.0907L0.586166 7.23201C0.540288 7.18629 0.540288 7.11219 0.586166 7.06647L1.66529 5.99106C1.71117 5.94536 1.78555 5.94536 1.83143 5.99106L6.67067 10.8136V0.242071C6.67067 0.177415 6.72324 0.125 6.78815 0.125H8.31536Z" fill="#212134"/>
</svg>
