<svg width="900" height="600" viewBox="0 0 900 600" fill="none" xmlns="http://www.w3.org/2000/svg"><path fill="transparent" d="M0 0h900v600H0z"/><rect x="212.271" y="64.312" width="470.389" height="470.389" rx="234.949" stroke="#E1E4E5" stroke-width="11.747" stroke-linecap="round" stroke-linejoin="bevel" stroke-dasharray="11.32 28.31"/><ellipse cx="208.545" cy="299.506" rx="34.587" ry="34.055" fill="#fff" stroke="#E1E4E5" stroke-width="11.747"/><ellipse cx="447.464" cy="60.587" rx="34.587" ry="34.055" transform="rotate(90 447.464 60.587)" fill="#fff" stroke="#E1E4E5" stroke-width="11.747"/><ellipse cx="686.384" cy="299.506" rx="34.587" ry="34.055" fill="#fff" stroke="#E1E4E5" stroke-width="11.747"/><ellipse cx="447.464" cy="538.426" rx="34.587" ry="34.055" transform="rotate(90 447.464 538.426)" fill="#fff" stroke="#E1E4E5" stroke-width="11.747"/><path fill-rule="evenodd" clip-rule="evenodd" d="M595.117 335.055V215.342c.004-20.603-12.965-38.995-32.423-45.98l-74.802-26.826a118.157 118.157 0 0 0-79.757 0l-74.9 26.875c-19.441 6.978-32.406 25.346-32.422 45.931v119.713c0 62.202 87.359 108.231 127.531 126.164a47.851 47.851 0 0 0 39.241 0c40.172-17.933 127.532-64.059 127.532-126.164z" fill="#946BDE"/><path fill-rule="evenodd" clip-rule="evenodd" d="M595.117 335.055V215.342c.004-20.603-12.965-38.995-32.423-45.98l-74.802-26.826a118.157 118.157 0 0 0-79.757 0l-74.9 26.875c-19.441 6.978-32.406 25.346-32.422 45.931v119.713c0 62.202 87.359 108.231 127.531 126.164a47.851 47.851 0 0 0 39.241 0c40.172-17.933 127.532-64.059 127.532-126.164z" fill="#946BDE"/><path fill="#fff" d="M386.681 258.689h122.527v106.683H386.681z"/><path fill-rule="evenodd" clip-rule="evenodd" d="M448.472 266.837c-15.29 0-28.911.604-40.039 1.371-10.556.728-18.672 9.462-19.43 20.829-.539 8.087-.914 16.607-.914 24.577 0 7.971.375 16.491.914 24.577.758 11.367 8.874 20.102 19.43 20.83a585.22 585.22 0 0 0 80.079 0c10.555-.728 18.672-9.463 19.429-20.83.539-8.086.914-16.606.914-24.577 0-7.97-.375-16.49-.914-24.577-.757-11.367-8.874-20.101-19.429-20.829a585.252 585.252 0 0 0-40.04-1.371zm-41.133-17.302c-19.131 1.319-34.161 17.418-35.543 38.154-.558 8.369-.959 17.365-.959 25.925 0 8.561.401 17.557.959 25.926 1.382 20.736 16.412 36.835 35.543 38.154a600.783 600.783 0 0 0 82.267 0c19.131-1.319 34.161-17.418 35.543-38.154.557-8.369.959-17.365.959-25.926 0-8.56-.402-17.556-.959-25.925-1.382-20.736-16.412-36.835-35.543-38.154a600.814 600.814 0 0 0-82.267 0z" fill="#fff"/><path fill-rule="evenodd" clip-rule="evenodd" d="M405.131 241.688c0-23.862 19.344-43.206 43.206-43.206 23.862 0 43.206 19.344 43.206 43.206v34.564a8.642 8.642 0 1 1-17.282 0v-34.564c0-14.318-11.607-25.924-25.924-25.924s-25.923 11.606-25.923 25.924v34.564a8.642 8.642 0 1 1-17.283 0v-34.564z" fill="#fff"/><path fill-rule="evenodd" clip-rule="evenodd" d="M456.979 324.425c5.165-2.988 8.641-8.573 8.641-14.97 0-9.545-7.738-17.283-17.282-17.283-9.545 0-17.283 7.738-17.283 17.283 0 6.397 3.476 11.982 8.641 14.97v10.953a8.64 8.64 0 0 0 8.642 8.641 8.64 8.64 0 0 0 8.641-8.641v-10.953z" fill="#946BDE"/><circle cx="715.267" cy="208.056" r="19.681" transform="rotate(180 715.267 208.056)" fill="#946BDE"/><circle cx="192.189" cy="191.383" r="16.202" transform="rotate(180 192.189 191.383)" fill="#946BDE"/><circle r="18.451" transform="matrix(-1 0 0 1 250.254 494.026)" fill="#946BDE"/><circle r="8.611" transform="matrix(-1 0 0 1 633.158 379.657)" fill="#946BDE"/><circle r="11.071" transform="matrix(-1 0 0 1 535.148 475.482)" fill="#E1E4E5"/><circle r="15.991" transform="matrix(-1 0 0 1 181.829 388.052)" fill="#E1E4E5"/><circle r="12.171" transform="matrix(-1 0 0 1 582.931 546.606)" fill="#E1E4E5"/><ellipse rx="6.516" ry="7.059" transform="matrix(-1 0 0 1 624.974 87.86)" fill="#E1E4E5"/><circle r="12.151" transform="scale(1 -1) rotate(-75 -123.786 -415.51)" fill="#E1E4E5"/><circle r="5.057" transform="matrix(-1 0 0 1 273.395 82.814)" fill="#E1E4E5"/><ellipse rx="12.434" ry="9.947" transform="matrix(-1 0 0 1 688.738 452.032)" fill="#E1E4E5"/><circle r="8.796" transform="scale(1 -1) rotate(-75 186.947 -412.37)" fill="#E1E4E5"/></svg>