<svg width="18" height="20" viewBox="0 0 18 20" fill="none" xmlns="http://www.w3.org/2000/svg">
<path d="M1.53996 5.12397C1.41627 5.12397 1.32223 5.23513 1.34273 5.35711L3.80355 20H13.8035L16.2644 5.35711C16.2849 5.23513 16.1908 5.12397 16.0671 5.12397H1.53996ZM16.9369 1.65289C17.0473 1.65289 17.1369 1.74244 17.1369 1.85289V3.10578C17.1369 3.21624 17.0473 3.30578 16.9369 3.30578H0.670215C0.559758 3.30578 0.470215 3.21624 0.470215 3.10578V1.85289C0.470215 1.74244 0.559758 1.65289 0.670215 1.65289H5.22938C5.97938 1.65289 6.58855 0.744628 6.58855 0H11.0185C11.0185 0.744628 11.6269 1.65289 12.3777 1.65289H16.9369Z" fill="#8E8EA9"/>
</svg>
