<svg width="13" height="13" viewBox="0 0 13 13" fill="none" xmlns="http://www.w3.org/2000/svg">
<path d="M13 7.30658C13 7.43084 12.8993 7.53158 12.775 7.53158H7.53158V12.775C7.53158 12.8993 7.43085 13 7.30658 13H5.69342C5.56915 13 5.46842 12.8993 5.46842 12.775V7.53158H0.225C0.100736 7.53158 0 7.43084 0 7.30658V5.69342C0 5.56915 0.100736 5.46842 0.225 5.46842H5.46842V0.225C5.46842 0.100736 5.56915 0 5.69342 0H7.30658C7.43085 0 7.53158 0.100736 7.53158 0.225V5.46842H12.775C12.8993 5.46842 13 5.56915 13 5.69342V7.30658Z" fill="#946BDE"/>
</svg>
